<svg width="161" height="139" viewBox="0 0 161 139" fill="none" xmlns="http://www.w3.org/2000/svg">
<path d="M79.4434 57L65.2314 28.7019H95.4161L79.4434 57Z" fill="#FFB340"/>
<path d="M79.4434 57L65.2314 28.7019H95.4161L79.4434 57Z" fill="black"/>
<path d="M98.0101 19.505C98.0101 29.2729 90.0916 37.1913 80.3238 37.1913C70.5559 37.1913 62.6375 29.2729 62.6375 19.505C62.6375 9.73716 70.5559 1.81873 80.3238 1.81873C90.0916 1.81873 98.0101 9.73716 98.0101 19.505Z" fill="#FFB340"/>
<path d="M98.0101 19.505C98.0101 29.2729 90.0916 37.1913 80.3238 37.1913C70.5559 37.1913 62.6375 29.2729 62.6375 19.505C62.6375 9.73716 70.5559 1.81873 80.3238 1.81873C90.0916 1.81873 98.0101 9.73716 98.0101 19.505Z" fill="black"/>
<path d="M71.3627 21.9811C71.3627 21.9811 79.6163 32.9466 89.2848 21.9811" stroke="black" stroke-width="14"/>
<circle cx="75.3716" cy="16.4394" r="1.88654" fill="black"/>
<circle cx="84.8043" cy="16.4394" r="1.88654" fill="black"/>
<path d="M76.8059 55.1813L62.594 26.8832H92.7786L76.8059 55.1813Z" fill="#FFB340"/>
<path d="M76.8059 55.1813L62.594 26.8832H92.7786L76.8059 55.1813Z" fill="#FF7A00"/>
<path d="M95.3726 17.6863C95.3726 27.4542 87.4542 35.3726 77.6863 35.3726C67.9184 35.3726 60 27.4542 60 17.6863C60 7.91843 67.9184 0 77.6863 0C87.4542 0 95.3726 7.91843 95.3726 17.6863Z" fill="#FFB340"/>
<path d="M95.3726 17.6863C95.3726 27.4542 87.4542 35.3726 77.6863 35.3726C67.9184 35.3726 60 27.4542 60 17.6863C60 7.91843 67.9184 0 77.6863 0C87.4542 0 95.3726 7.91843 95.3726 17.6863Z" fill="#FF7A00"/>
<path d="M68.7253 20.1624C68.7253 20.1624 76.9789 31.1279 86.6474 20.1624" stroke="black" stroke-width="3"/>
<circle cx="72.7342" cy="14.6207" r="1.88654" fill="black"/>
<circle cx="82.1669" cy="14.6207" r="1.88654" fill="black"/>
<path d="M121.454 90L52.1688 73.2165L33 90H121.454Z" fill="#BDDAB1"/>
<path d="M122.814 85.4639L52.2783 69.598L53.9904 68H103.411L122.814 85.4639Z" fill="#F2EFE9"/>
<path d="M10.656 101.04C8.736 101.04 7.44 102 6.768 103.92C6.096 105.816 5.76 108.192 5.76 111.048C5.76 113.976 6.096 116.364 6.768 118.212C7.44 120.06 8.796 120.984 10.836 120.984C11.964 120.984 12.996 120.828 13.932 120.516L13.788 112.092L17.712 111.588V122.316C16.848 122.772 15.744 123.132 14.4 123.396C13.056 123.66 11.832 123.792 10.728 123.792C7.32 123.792 4.884 122.688 3.42 120.48C1.956 118.248 1.224 115.164 1.224 111.228C1.224 107.34 1.992 104.256 3.528 101.976C5.088 99.672 7.572 98.52 10.98 98.52C13.116 98.52 14.844 98.94 16.164 99.78C17.484 100.62 18.144 101.952 18.144 103.776C18.144 104.64 17.892 105.348 17.388 105.9C16.884 106.428 16.2 106.692 15.336 106.692C14.544 106.692 13.92 106.5 13.464 106.116C13.656 105.588 13.752 104.988 13.752 104.316C13.752 103.284 13.488 102.48 12.96 101.904C12.432 101.328 11.664 101.04 10.656 101.04ZM33.6203 117.924C34.1723 118.188 34.4483 118.704 34.4483 119.472C34.4483 120.336 34.1603 121.104 33.5843 121.776C33.0083 122.424 32.2643 122.916 31.3523 123.252C30.4403 123.612 29.5163 123.792 28.5803 123.792C25.9403 123.792 23.9843 122.94 22.7123 121.236C21.4403 119.508 20.8043 117.192 20.8043 114.288C20.8043 111.192 21.4883 108.696 22.8563 106.8C24.2483 104.88 26.3483 103.92 29.1563 103.92C30.9323 103.92 32.3603 104.388 33.4403 105.324C34.5203 106.236 35.0603 107.532 35.0603 109.212C35.0603 111.3 34.3283 112.764 32.8643 113.604C31.4243 114.444 29.4563 114.864 26.9603 114.864C26.2643 114.864 25.6043 114.84 24.9803 114.792C25.0523 116.688 25.3643 118.2 25.9163 119.328C26.4923 120.456 27.5003 121.02 28.9403 121.02C29.9963 121.02 30.9203 120.756 31.7123 120.228C32.5283 119.676 33.1643 118.908 33.6203 117.924ZM28.5803 105.972C27.2843 105.972 26.3723 106.656 25.8443 108.024C25.3163 109.368 25.0283 111.024 24.9803 112.992C25.7003 113.04 26.2283 113.064 26.5643 113.064C29.5883 113.064 31.1003 111.852 31.1003 109.428C31.1003 108.444 30.8843 107.628 30.4523 106.98C30.0443 106.308 29.4203 105.972 28.5803 105.972ZM45.1766 103.92C47.8646 103.92 49.8566 104.796 51.1526 106.548C52.4486 108.276 53.0966 110.616 53.0966 113.568C53.0966 116.712 52.4726 119.208 51.2246 121.056C49.9766 122.88 47.9606 123.792 45.1766 123.792C42.4406 123.792 40.4366 122.916 39.1646 121.164C37.9166 119.412 37.2926 117 37.2926 113.928C37.2926 110.952 37.9406 108.54 39.2366 106.692C40.5326 104.844 42.5126 103.92 45.1766 103.92ZM45.1766 121.632C46.6646 121.632 47.6366 120.9 48.0926 119.436C48.5486 117.972 48.7766 116.076 48.7766 113.748C48.7766 111.612 48.5246 109.8 48.0206 108.312C47.5406 106.824 46.5926 106.08 45.1766 106.08C42.8006 106.08 41.6126 108.636 41.6126 113.748C41.6126 116.076 41.8286 117.972 42.2606 119.436C42.7166 120.9 43.6886 121.632 45.1766 121.632ZM63.0301 98.52C65.0941 98.52 66.7501 98.916 67.9981 99.708C69.2701 100.5 69.9061 101.772 69.9061 103.524C69.9061 104.388 69.6541 105.096 69.1501 105.648C68.6461 106.176 67.9621 106.44 67.0981 106.44C66.2581 106.44 65.6341 106.248 65.2261 105.864C65.4181 105.336 65.5141 104.736 65.5141 104.064C65.5141 101.952 64.5781 100.896 62.7061 100.896C61.7941 100.896 61.0741 101.124 60.5461 101.58C60.0421 102.012 59.7901 102.66 59.7901 103.524C59.7901 104.316 59.9941 105.036 60.4021 105.684C60.8101 106.332 61.3141 106.908 61.9141 107.412C62.5381 107.916 63.3781 108.528 64.4341 109.248C65.6821 110.088 66.6781 110.844 67.4221 111.516C68.1901 112.164 68.8381 112.956 69.3661 113.892C69.8941 114.804 70.1581 115.86 70.1581 117.06C70.1581 119.196 69.4261 120.852 67.9621 122.028C66.4981 123.204 64.6021 123.792 62.2741 123.792C60.1621 123.792 58.4101 123.372 57.0181 122.532C55.6501 121.668 54.9661 120.336 54.9661 118.536C54.9661 117.672 55.2181 116.976 55.7221 116.448C56.2261 115.896 56.8981 115.62 57.7381 115.62C58.5781 115.62 59.2021 115.812 59.6101 116.196C59.4421 116.676 59.3581 117.276 59.3581 117.996C59.3581 120.276 60.4381 121.416 62.5981 121.416C63.6541 121.416 64.5181 121.128 65.1901 120.552C65.8621 119.952 66.1981 119.148 66.1981 118.14C66.1981 117.348 65.9941 116.628 65.5861 115.98C65.1781 115.332 64.6621 114.756 64.0381 114.252C63.4381 113.748 62.6101 113.136 61.5541 112.416C60.3061 111.576 59.2981 110.832 58.5301 110.184C57.7861 109.512 57.1501 108.72 56.6221 107.808C56.0941 106.872 55.8301 105.804 55.8301 104.604C55.8301 102.684 56.5021 101.196 57.8461 100.14C59.2141 99.06 60.9421 98.52 63.0301 98.52ZM71.4066 106.26L71.3706 105.18C72.4506 104.748 73.4706 104.172 74.4306 103.452C75.4146 102.732 76.2426 101.94 76.9146 101.076H78.0306V104.64H81.3426V106.26H77.9586V119.364C77.9586 120.084 78.0906 120.624 78.3546 120.984C78.6186 121.344 79.0386 121.572 79.6146 121.668C79.4946 122.22 79.1706 122.664 78.6426 123C78.1386 123.36 77.5506 123.54 76.8786 123.54C74.9346 123.54 73.9626 122.436 73.9626 120.228V106.26H71.4066ZM90.5282 103.92C93.2162 103.92 95.2082 104.796 96.5042 106.548C97.8002 108.276 98.4482 110.616 98.4482 113.568C98.4482 116.712 97.8242 119.208 96.5762 121.056C95.3282 122.88 93.3122 123.792 90.5282 123.792C87.7922 123.792 85.7882 122.916 84.5162 121.164C83.2682 119.412 82.6442 117 82.6442 113.928C82.6442 110.952 83.2922 108.54 84.5882 106.692C85.8842 104.844 87.8642 103.92 90.5282 103.92ZM90.5282 121.632C92.0162 121.632 92.9882 120.9 93.4442 119.436C93.9002 117.972 94.1282 116.076 94.1282 113.748C94.1282 111.612 93.8762 109.8 93.3722 108.312C92.8922 106.824 91.9442 106.08 90.5282 106.08C88.1522 106.08 86.9642 108.636 86.9642 113.748C86.9642 116.076 87.1802 117.972 87.6122 119.436C88.0682 120.9 89.0402 121.632 90.5282 121.632ZM108.382 106.692C107.35 106.692 106.678 107.388 106.366 108.78C106.078 110.148 105.934 111.792 105.934 113.712V123H101.974V104.64L105.286 104.208L105.466 107.448C105.802 106.368 106.39 105.516 107.23 104.892C108.07 104.244 109.042 103.92 110.146 103.92C111.346 103.92 112.294 104.268 112.99 104.964C113.71 105.66 114.07 106.608 114.07 107.808C114.07 109.752 113.134 110.724 111.262 110.724C110.638 110.724 110.158 110.592 109.822 110.328C109.99 109.704 110.074 109.164 110.074 108.708C110.074 107.364 109.51 106.692 108.382 106.692ZM118.193 97.08C118.985 97.08 119.621 97.272 120.101 97.656C120.605 98.04 120.857 98.592 120.857 99.312C120.857 100.056 120.593 100.632 120.065 101.04C119.561 101.424 118.901 101.616 118.085 101.616C117.293 101.616 116.657 101.424 116.177 101.04C115.697 100.656 115.457 100.104 115.457 99.384C115.457 98.64 115.709 98.076 116.213 97.692C116.741 97.284 117.401 97.08 118.193 97.08ZM120.065 120.048C120.065 121.224 120.437 122.016 121.181 122.424C120.989 122.784 120.677 123.06 120.245 123.252C119.813 123.444 119.345 123.54 118.841 123.54C117.929 123.54 117.245 123.276 116.789 122.748C116.333 122.22 116.105 121.476 116.105 120.516V104.64H120.065V120.048ZM136.558 117.924C137.11 118.188 137.386 118.704 137.386 119.472C137.386 120.336 137.098 121.104 136.522 121.776C135.946 122.424 135.202 122.916 134.29 123.252C133.378 123.612 132.454 123.792 131.518 123.792C128.878 123.792 126.922 122.94 125.65 121.236C124.378 119.508 123.742 117.192 123.742 114.288C123.742 111.192 124.426 108.696 125.794 106.8C127.186 104.88 129.286 103.92 132.094 103.92C133.87 103.92 135.298 104.388 136.378 105.324C137.458 106.236 137.998 107.532 137.998 109.212C137.998 111.3 137.266 112.764 135.802 113.604C134.362 114.444 132.394 114.864 129.898 114.864C129.202 114.864 128.542 114.84 127.918 114.792C127.99 116.688 128.302 118.2 128.854 119.328C129.43 120.456 130.438 121.02 131.878 121.02C132.934 121.02 133.858 120.756 134.65 120.228C135.466 119.676 136.102 118.908 136.558 117.924ZM131.518 105.972C130.222 105.972 129.31 106.656 128.782 108.024C128.254 109.368 127.966 111.024 127.918 112.992C128.638 113.04 129.166 113.064 129.502 113.064C132.526 113.064 134.038 111.852 134.038 109.428C134.038 108.444 133.822 107.628 133.39 106.98C132.982 106.308 132.358 105.972 131.518 105.972ZM147.286 105.828C146.566 105.828 145.99 106.02 145.558 106.404C145.126 106.764 144.91 107.292 144.91 107.988C144.91 108.924 145.222 109.692 145.846 110.292C146.494 110.868 147.478 111.516 148.798 112.236C149.854 112.812 150.694 113.328 151.318 113.784C151.966 114.24 152.518 114.828 152.974 115.548C153.43 116.244 153.658 117.096 153.658 118.104C153.658 119.928 152.998 121.332 151.678 122.316C150.382 123.3 148.726 123.792 146.71 123.792C144.958 123.792 143.482 123.492 142.282 122.892C141.106 122.292 140.518 121.296 140.518 119.904C140.518 119.088 140.77 118.464 141.274 118.032C141.778 117.6 142.462 117.384 143.326 117.384C143.95 117.384 144.43 117.516 144.766 117.78C144.574 118.356 144.478 118.896 144.478 119.4C144.478 120.168 144.718 120.78 145.198 121.236C145.678 121.668 146.326 121.884 147.142 121.884C148.03 121.884 148.702 121.656 149.158 121.2C149.638 120.72 149.878 120.024 149.878 119.112C149.878 118.176 149.554 117.42 148.906 116.844C148.282 116.244 147.31 115.584 145.99 114.864C144.934 114.264 144.082 113.736 143.434 113.28C142.81 112.824 142.27 112.248 141.814 111.552C141.358 110.832 141.13 109.968 141.13 108.96C141.13 107.352 141.778 106.116 143.074 105.252C144.37 104.364 145.942 103.92 147.79 103.92C149.494 103.92 150.886 104.232 151.966 104.856C153.07 105.456 153.622 106.452 153.622 107.844C153.622 108.66 153.358 109.284 152.83 109.716C152.326 110.148 151.642 110.364 150.778 110.364C150.154 110.364 149.674 110.232 149.338 109.968C149.53 109.392 149.626 108.852 149.626 108.348C149.626 107.556 149.422 106.944 149.014 106.512C148.63 106.056 148.054 105.828 147.286 105.828Z" fill="black"/>
</svg>
